<?xml version="1.0" encoding="utf-8"?>
<!-- Generator: Adobe Illustrator 27.0.0, SVG Export Plug-In . SVG Version: 6.00 Build 0)  -->
<svg version="1.1" id="Capa_1" xmlns="http://www.w3.org/2000/svg" xmlns:xlink="http://www.w3.org/1999/xlink" x="0px" y="0px"
	 viewBox="0 0 775.4 248.8" style="enable-background:new 0 0 775.4 248.8;" xml:space="preserve">
<style type="text/css">
	.st0{fill:#E2E0E0;}
	.st1{fill:#B4C7E7;}
</style>
<g id="Capa_2_00000052081042373731115150000001650323114993903780_">
	<g id="Capa_1-2">
		<path class="st0" d="M139.5,69.9c-4-7.6-10.6-13.7-18.5-17.1c-8.2-3.7-18.6-5.6-31.4-5.6c-6.4,0.1-12.7,0.6-19,1.8
			c-7.5,1.3-14.9,3.5-21.9,6.4c-3.8,1.3-6.5,3.3-8.2,6.1c-1.6,2.5-2.4,5.5-2.4,8.4c0,2.8,0.7,5.5,2.2,7.9s3.8,4.2,6.5,5
			c2.8,0.9,6,0.6,9.7-1.1c5.6-2.3,11.4-4.1,17.2-5.3c4.8-1,9.6-1.6,14.5-1.6c7.9,0,13.5,1.6,16.9,4.6c3.4,3.1,5,8.2,5,15.5V98
			c-0.1,0.6-0.5,1.1-1.1,1.1h-7.9c-17.2,0-31,1.1-41.4,3.3c-10.4,2.2-18,5.9-22.5,11.2s-7,12.3-7,21.2c-0.1,7.1,2,14.1,6,20.1
			c4.2,6.1,9.9,11,16.6,14.1c7.5,3.6,15.8,5.4,24.1,5.2c5.9,0.1,11.7-1,17.1-3.4c4.8-2.1,9-5.4,12.2-9.5c0.7-0.8,1.3-1.7,1.8-2.6
			c0.4-0.6,0.7-1.3,1.1-1.9c0.1-0.1,0.1-0.2,0.2-0.3c0.2-0.4,0.7-0.6,1.1-0.5c0.1,0,0.2,0.1,0.3,0.2c0.2,0.2,0.3,0.5,0.2,0.7
			c0.1,1,0.2,2.1,0.4,3.1c0.2,0.9,0.4,1.8,0.7,2.7c0.3,0.8,0.6,1.6,1,2.4c0.4,0.7,0.8,1.5,1.3,2.1c0.3,0.5,0.7,0.9,1.1,1.4
			c3.1,3.3,7.4,5,13,5c5.6,0,9.9-1.6,12.9-5s4.4-8,4.4-14.1V99.4C145.7,87.5,143.6,77.6,139.5,69.9z M110,123.4
			c0.1,4.6-1.1,9.2-3.2,13.2c-4.3,7.9-12.6,12.7-21.6,12.5c-6.1,0-10.8-1.5-14-4.4s-5-7.1-4.8-11.4c0-3.8,1.1-6.8,3.4-9
			c2.2-2.2,5.9-3.6,11.2-4.6c6.8-1,13.6-1.5,20.5-1.3h5.8c1.6,0,2.8,1.2,2.8,2.8l0,0L110,123.4z"/>
		<path class="st0" d="M279.1,160.8c-0.4,3.7-2.2,7-5.1,9.3c-3.3,2.5-7.3,3.7-11.4,3.6c-5.6,0-10.1-1.1-13.5-3.2
			c-4-2.7-7.4-6-10.3-9.9l-35.2-39.2l-0.1-0.2c-0.3-0.3-0.6-0.4-1-0.4c-0.9,0-1.5,0.7-1.6,1.5l0,0v32.2c0,12.7-6.2,19.1-18.6,19.1
			c-6.1,0-10.8-1.7-14-5s-4.8-8-4.8-14.1V40.4c0-6.3,1.6-11.1,4.8-14.3c3.2-3.2,7.9-4.9,14-4.9c6,0,10.5,1.6,13.8,4.9
			c3.2,3.2,4.8,8,4.8,14.3v35c0,3.6,0,7.2,0,10.7c0,1.8,0,3.5,0,5.3c0,1.4-0.1,2.8-0.1,4.2c-0.1,0.8,0.1,1.6,0.6,2.2
			c0.3,0.3,0.7,0.5,1.2,0.4c0.7-0.2,1.2-0.6,1.6-1.2c0.6-0.7,1.2-1.3,1.8-1.9l3.6-4c2.4-2.7,4.8-5.3,7.2-7.9l5.7-6.3l14.1-15.6
			l0.9-1c2.9-3.5,6.3-6.6,10-9.3c3.1-2.1,7.2-3.1,12.3-3.1c5.1,0,9.1,1.3,11.8,4c2.6,2.5,4.1,5.9,4.2,9.5c0.1,3.7-1.6,7.5-4.9,11.3
			l-30,33.6c-0.9,1.1-0.9,2.7,0,3.7l34.3,39.6C278.1,153.2,279.5,157,279.1,160.8z"/>
		<path class="st0" d="M541.1,98.3v56.3c0,6.1-1.6,10.8-4.8,14.1c-3.2,3.3-7.9,5-14,5c-6,0-10.5-1.7-13.8-5c-3.2-3.3-4.8-8-4.9-14.1
			V100c0-8.4-1.5-14.5-4.6-18.2s-7.7-5.6-14-5.6c-7.9,0-14.3,2.5-19,7.4c-4.7,5-7.1,11.6-7.1,19.8v51.1c0,12.7-6.2,19.1-18.6,19.1
			c-6.1,0-10.8-1.7-14-5s-4.8-8-4.8-14.1v-88c0-6.1,1.6-10.8,4.8-14c3.2-3.2,7.7-4.8,13.5-4.8c5.9,0,10.5,1.6,13.6,4.8
			c2.7,2.8,4.3,6.7,4.6,11.6c0,0.1,0,0.1,0,0.2s0,0.2,0.1,0.3c0.1,0.4,0.5,0.7,1,0.7c0.3,0,0.6-0.1,0.8-0.4l0.1-0.1
			c3.3-4.5,7.6-8.4,12.5-11.2c7.8-4.5,16.6-6.8,25.6-6.6c9.8,0,17.8,1.9,24.1,5.6s11,9.3,14.1,16.9
			C539.5,77.2,541.1,86.8,541.1,98.3z"/>
		<path class="st0" d="M458.1,64.7c0-0.1-0.1-0.2-0.1-0.3c0-0.1,0-0.1,0-0.2C458.1,64.4,458.1,64.5,458.1,64.7z"/>
		<path class="st0" d="M635.5,154.4c0.1,3.6-0.6,7.1-2,10.4c-1.3,3-3.8,5.3-6.9,6.5c-2.9,1-5.8,1.7-8.8,2.1
			c-3.2,0.5-6.3,0.8-9.5,0.9c-11.4,0-21-1.9-28.7-5.7c-7.4-3.5-13.4-9.3-17.1-16.6c-3.7-7.3-5.6-16.5-5.6-27.5V31
			c0-6.3,1.7-11,5-14.3c3.3-3.2,8-4.8,13.9-4.8c6.1,0,10.7,1.6,13.9,4.8c3.2,3.2,4.7,8,4.7,14.3v16.1c0,1.5,1.2,2.8,2.8,2.8H618
			c4.6,0,8.2,1.2,10.6,3.6c2.5,2.4,3.7,5.9,3.7,10.5c0,4.3-1.2,7.7-3.7,10.2s-6,3.7-10.6,3.7h-20.8c-1.6,0-2.8,1.3-2.8,2.8l0,0V123
			c0,7,1.6,12.2,4.8,15.6c3.2,3.5,8.4,5.2,15.5,5.2c2.4,0,4.7-0.2,7-0.7c1.9-0.5,3.9-0.8,5.9-1c2.1-0.2,4.2,0.5,5.7,2.1
			C634.7,145.6,635.5,149.1,635.5,154.4z"/>
		<path class="st0" d="M667.7,60.6c-6.1,0-10.8,1.6-14,4.8c-3.2,3.2-4.8,7.8-4.8,13.7v76.2c0,5.8,1.6,10.3,4.8,13.5s7.9,4.8,14,4.8
			s10.8-1.6,13.9-4.8s4.7-7.7,4.7-13.5V79.1c0-5.9-1.6-10.5-4.8-13.7C678.3,62.2,673.7,60.6,667.7,60.6z"/>
		<path class="st0" d="M667.7,49.1c6.9,0,12.2-1.6,15.9-4.8s5.5-7.8,5.5-13.8c0-6.1-1.8-10.8-5.5-14c-3.6-3.2-8.9-4.8-15.9-4.9
			c-6.9,0-12.3,1.6-16,4.8c-3.7,3.2-5.6,7.9-5.6,14c0,5.9,1.9,10.5,5.6,13.8S660.8,49.1,667.7,49.1z"/>
		<path class="st0" d="M723.9,174.2c6.9,0,12.2-1.6,15.9-4.8c3.6-3.2,5.5-7.8,5.5-13.8c0-6.1-1.8-10.8-5.5-14
			c-3.6-3.2-8.9-4.8-15.9-4.8s-12.3,1.6-16,4.8s-5.6,7.9-5.6,14c0,5.9,1.9,10.5,5.6,13.8S716.9,174.2,723.9,174.2z"/>
		<path class="st0" d="M397.8,69.9c-4-7.6-10.6-13.7-18.5-17.1c-8.2-3.7-18.7-5.6-31.4-5.6c-6.4,0.1-12.7,0.6-19,1.8
			c-7.5,1.3-14.9,3.5-21.9,6.4c-3.8,1.3-6.5,3.3-8.2,6.1c-1.6,2.5-2.5,5.5-2.5,8.4c0,2.8,0.7,5.5,2.2,7.9s3.8,4.2,6.5,5
			c2.8,0.9,6,0.6,9.6-1.1c5.6-2.3,11.4-4.1,17.3-5.3c4.8-1,9.6-1.6,14.5-1.6c7.9,0,13.5,1.6,16.9,4.6s5,8.2,5,15.5V98
			c-0.1,0.6-0.6,1.1-1.2,1.1h-7.8c-17.2,0-31,1.1-41.4,3.3c-10.4,2.2-18,6-22.6,11.2s-7,12.3-7,21.2c-0.1,7.1,2,14.1,6,20.1
			c4.2,6.1,9.9,11,16.6,14.1c7.5,3.6,15.8,5.4,24.1,5.2c5.9,0.1,11.7-1,17.1-3.4c4.8-2.1,9-5.3,12.3-9.4c0.7-0.8,1.3-1.7,1.8-2.6
			c0.4-0.6,0.7-1.3,1.1-1.9c0.1-0.1,0.1-0.2,0.2-0.3c0.2-0.4,0.7-0.6,1.1-0.5c0.1,0,0.2,0.1,0.3,0.2c0.2,0.2,0.2,0.5,0.2,0.7
			c0.1,1,0.2,2,0.4,3.1c0.2,0.9,0.4,1.8,0.7,2.7c0.3,0.8,0.6,1.6,1,2.4c0.4,0.7,0.8,1.5,1.3,2.1c0.3,0.5,0.7,0.9,1.1,1.4
			c3.1,3.3,7.4,5,13,5s9.9-1.6,12.9-5s4.5-8,4.5-14.1V99.5C404,87.5,401.9,77.6,397.8,69.9z M368.3,123.4c0.1,4.6-1.1,9.2-3.2,13.2
			c-4.3,7.9-12.6,12.7-21.6,12.5c-6.1,0-10.8-1.5-14-4.4s-5-7.1-4.9-11.4c0-3.8,1.1-6.8,3.4-9c2.2-2.2,5.9-3.6,11.2-4.6
			c6.8-1,13.6-1.5,20.5-1.3h5.9c1.6,0,2.8,1.2,2.8,2.8l0,0L368.3,123.4z"/>
	</g>
</g>
<g>
	<path class="st1" d="M303.8,223.9c1.1,1.4,1.7,2.9,1.7,4.7c0,1.5-0.4,2.8-1.1,4s-1.8,2.1-3.2,2.8c-1.4,0.7-3.1,1-5.1,1H286v-29h9.8
		c2.9,0,5.2,0.7,6.7,2c1.5,1.4,2.3,3.1,2.3,5.3c0,1.8-0.5,3.3-1.5,4.4c-1,1.1-2.2,1.9-3.7,2.3C301.3,221.7,302.7,222.5,303.8,223.9z
		 M289,220.2h6.8c2,0,3.5-0.5,4.5-1.4c1.1-0.9,1.6-2.2,1.6-3.8s-0.5-2.9-1.6-3.8s-2.6-1.4-4.7-1.4H289L289,220.2L289,220.2z
		 M300.8,232.5c1.2-1,1.8-2.4,1.8-4.1s-0.6-3.1-1.8-4.2c-1.2-1-2.9-1.6-5-1.6H289v11.3h6.9C298,234,299.6,233.5,300.8,232.5z"/>
	<path class="st1" d="M311.1,218.9c0.9-1.8,2.2-3.1,3.9-4.1c1.6-1,3.5-1.4,5.6-1.4c2.2,0,4,0.5,5.6,1.5s2.7,2.3,3.4,3.8v-5h2.9v22.7
		h-2.9v-5c-0.7,1.6-1.9,2.8-3.4,3.8c-1.6,1-3.4,1.5-5.6,1.5c-2.1,0-3.9-0.5-5.5-1.5s-2.9-2.3-3.9-4.1c-0.9-1.8-1.4-3.8-1.4-6.1
		S310.2,220.7,311.1,218.9z M328.4,220.2c-0.7-1.4-1.8-2.5-3.1-3.2c-1.3-0.7-2.7-1.1-4.3-1.1c-1.6,0-3,0.4-4.3,1.1
		c-1.3,0.7-2.3,1.8-3,3.1c-0.7,1.4-1.1,3-1.1,4.9s0.4,3.5,1.1,4.9s1.7,2.5,3,3.2s2.7,1.1,4.3,1.1c1.6,0,3-0.4,4.3-1.1
		c1.3-0.7,2.3-1.8,3.1-3.2c0.7-1.4,1.1-3,1.1-4.8C329.6,223.2,329.2,221.6,328.4,220.2z"/>
	<path class="st1" d="M344.8,214.5c1.3-0.8,2.9-1.2,4.8-1.2v3h-0.8c-2.1,0-3.8,0.6-5.1,1.7c-1.3,1.1-1.9,3-1.9,5.7v12.7h-2.9v-22.7
		h2.9v4C342.5,216.3,343.5,215.2,344.8,214.5z"/>
	<path class="st1" d="M354.1,218.9c0.9-1.8,2.2-3.1,3.9-4.1c1.7-1,3.6-1.4,5.7-1.4c2.8,0,5.1,0.7,6.9,2.1c1.8,1.4,3,3.3,3.5,5.7H371
		c-0.4-1.6-1.2-2.9-2.5-3.8c-1.3-0.9-2.9-1.4-4.8-1.4c-1.5,0-2.9,0.3-4.1,1s-2.2,1.7-2.9,3.1c-0.7,1.4-1.1,3.1-1.1,5
		c0,2,0.4,3.7,1.1,5.1c0.7,1.4,1.7,2.4,2.9,3.1c1.2,0.7,2.6,1,4.1,1c1.9,0,3.5-0.5,4.8-1.4s2.1-2.2,2.5-3.9h3.1
		c-0.5,2.3-1.7,4.2-3.5,5.6c-1.8,1.4-4.1,2.1-6.9,2.1c-2.1,0-4-0.5-5.7-1.4c-1.7-1-3-2.3-3.9-4.1s-1.4-3.8-1.4-6.2
		C352.7,222.7,353.2,220.7,354.1,218.9z"/>
	<path class="st1" d="M400,226.2h-18.8c0.1,1.7,0.5,3.2,1.2,4.4s1.7,2.1,3,2.8c1.2,0.6,2.5,0.9,4,0.9c1.9,0,3.5-0.5,4.8-1.4
		s2.1-2.1,2.6-3.7h3.1c-0.6,2.2-1.7,4-3.6,5.4c-1.8,1.4-4.1,2.1-6.8,2.1c-2.1,0-4-0.5-5.7-1.4c-1.7-1-3-2.3-4-4.1s-1.4-3.8-1.4-6.2
		s0.5-4.4,1.4-6.2s2.3-3.1,3.9-4.1c1.7-0.9,3.6-1.4,5.8-1.4c2.2,0,4.1,0.5,5.7,1.4s2.9,2.2,3.7,3.8c0.9,1.6,1.3,3.4,1.3,5.3
		C400,224.9,400,225.7,400,226.2z M396.1,219.5c-0.7-1.2-1.7-2.1-2.9-2.7c-1.2-0.6-2.5-0.9-4-0.9c-2.2,0-4,0.7-5.5,2.1
		c-1.5,1.4-2.4,3.3-2.5,5.9h16C397.1,222.1,396.8,220.7,396.1,219.5z"/>
	<path class="st1" d="M408.4,205.7v30.8h-2.9v-30.8H408.4z"/>
	<path class="st1" d="M419.1,235.3c-1.7-1-3-2.3-4-4.1s-1.5-3.8-1.5-6.2s0.5-4.4,1.5-6.2s2.4-3.1,4.1-4.1s3.6-1.4,5.8-1.4
		c2.1,0,4.1,0.5,5.8,1.4c1.7,1,3.1,2.3,4.1,4.1s1.5,3.8,1.5,6.2c0,2.3-0.5,4.4-1.5,6.2s-2.4,3.1-4.1,4.1s-3.7,1.4-5.8,1.4
		C422.7,236.7,420.8,236.3,419.1,235.3z M429,233.2c1.3-0.7,2.3-1.7,3.1-3.1c0.8-1.4,1.2-3.1,1.2-5c0-2-0.4-3.7-1.2-5
		c-0.8-1.4-1.8-2.4-3.1-3.1c-1.3-0.7-2.7-1-4.2-1s-2.9,0.3-4.2,1c-1.3,0.7-2.3,1.7-3.1,3.1c-0.8,1.4-1.1,3.1-1.1,5
		c0,2,0.4,3.7,1.1,5c0.8,1.4,1.8,2.4,3,3.1c1.3,0.7,2.6,1,4.1,1S427.8,233.9,429,233.2z"/>
	<path class="st1" d="M458.7,215.8c1.7,1.7,2.6,4.1,2.6,7.3v13.3h-2.9v-13c0-2.5-0.6-4.3-1.8-5.7s-2.9-2-5-2c-2.2,0-3.9,0.7-5.2,2.1
		c-1.3,1.4-2,3.4-2,6.1v12.4h-3v-22.6h2.9v3.9c0.7-1.4,1.8-2.4,3.1-3.2s2.9-1.1,4.6-1.1C454.8,213.3,457,214.1,458.7,215.8z"/>
	<path class="st1" d="M467.9,218.9c0.9-1.8,2.2-3.1,3.9-4.1c1.6-1,3.5-1.4,5.6-1.4c2.2,0,4,0.5,5.6,1.5s2.7,2.3,3.4,3.8v-5h2.9v22.7
		h-2.9v-5c-0.7,1.6-1.9,2.8-3.4,3.8c-1.6,1-3.4,1.5-5.6,1.5c-2.1,0-3.9-0.5-5.5-1.5s-2.9-2.3-3.9-4.1c-0.9-1.8-1.4-3.8-1.4-6.1
		S467,220.7,467.9,218.9z M485.2,220.2c-0.7-1.4-1.8-2.5-3.1-3.2s-2.7-1.1-4.3-1.1c-1.6,0-3,0.4-4.3,1.1c-1.3,0.7-2.3,1.8-3,3.1
		s-1.1,3-1.1,4.9s0.4,3.5,1.1,4.9s1.7,2.5,3,3.2s2.7,1.1,4.3,1.1c1.6,0,3-0.4,4.3-1.1s2.3-1.8,3.1-3.2c0.7-1.4,1.1-3,1.1-4.8
		C486.3,223.2,486,221.6,485.2,220.2z"/>
</g>
</svg>
