<?xml version="1.0" encoding="utf-8"?>
<!-- Generator: Adobe Illustrator 27.0.0, SVG Export Plug-In . SVG Version: 6.00 Build 0)  -->
<svg version="1.1" id="Capa_1" xmlns="http://www.w3.org/2000/svg" xmlns:xlink="http://www.w3.org/1999/xlink" x="0px" y="0px"
	 viewBox="0 0 814.5 814.5" style="enable-background:new 0 0 814.5 814.5;" xml:space="preserve">
<style type="text/css">
	.st0{fill:#E2E0E0;}
</style>
<g id="Capa_2_00000052081042373731115150000001650323114993903780_">
	<g id="Capa_1-2">
		<path class="st0" d="M159.1,384.2c-4-7.6-10.6-13.7-18.5-17.1c-8.2-3.7-18.6-5.6-31.4-5.6c-6.4,0.1-12.7,0.6-19,1.8
			c-7.5,1.3-14.9,3.5-21.9,6.4c-3.8,1.3-6.5,3.3-8.2,6.1c-1.6,2.5-2.4,5.5-2.4,8.4c0,2.8,0.7,5.5,2.2,7.9s3.8,4.2,6.5,5
			c2.8,0.9,6,0.6,9.7-1.1c5.6-2.3,11.4-4.1,17.2-5.3c4.8-1,9.6-1.6,14.5-1.6c7.9,0,13.5,1.6,16.9,4.6c3.4,3.1,5,8.2,5,15.5v3.1
			c-0.1,0.6-0.5,1.1-1.1,1.1h-7.9c-17.2,0-31,1.1-41.4,3.3c-10.4,2.2-18,5.9-22.5,11.2s-7,12.3-7,21.2c-0.1,7.1,2,14.1,6,20.1
			c4.2,6.1,9.9,11,16.6,14.1c7.5,3.6,15.8,5.4,24.1,5.2c5.9,0.1,11.7-1,17.1-3.4c4.8-2.1,9-5.4,12.2-9.5c0.7-0.8,1.3-1.7,1.8-2.6
			c0.4-0.6,0.7-1.3,1.1-1.9c0.1-0.1,0.1-0.2,0.2-0.3c0.2-0.4,0.7-0.6,1.1-0.5c0.1,0,0.2,0.1,0.3,0.2c0.2,0.2,0.3,0.5,0.2,0.7
			c0.1,1,0.2,2.1,0.4,3.1c0.2,0.9,0.4,1.8,0.7,2.7c0.3,0.8,0.6,1.6,1,2.4c0.4,0.7,0.8,1.5,1.3,2.1c0.3,0.5,0.7,0.9,1.1,1.4
			c3.1,3.3,7.4,5,13,5s9.9-1.6,12.9-5s4.4-8,4.4-14.1v-55.1C165.3,401.8,163.2,391.9,159.1,384.2z M129.6,437.7
			c0.1,4.6-1.1,9.2-3.2,13.2c-4.3,7.9-12.6,12.7-21.6,12.5c-6.1,0-10.8-1.5-14-4.4s-5-7.1-4.8-11.4c0-3.8,1.1-6.8,3.4-9
			c2.2-2.2,5.9-3.6,11.2-4.6c6.8-1,13.6-1.5,20.5-1.3h5.8c1.6,0,2.8,1.2,2.8,2.8l0,0L129.6,437.7z"/>
		<path class="st0" d="M298.7,475.1c-0.4,3.7-2.2,7-5.1,9.3c-3.3,2.5-7.3,3.7-11.4,3.6c-5.6,0-10.1-1.1-13.5-3.2
			c-4-2.7-7.4-6-10.3-9.9l-35.2-39.2l-0.1-0.2c-0.3-0.3-0.6-0.4-1-0.4c-0.9,0-1.5,0.7-1.6,1.5l0,0v32.2c0,12.7-6.2,19.1-18.6,19.1
			c-6.1,0-10.8-1.7-14-5s-4.8-8-4.8-14.1V354.7c0-6.3,1.6-11.1,4.8-14.3c3.2-3.2,7.9-4.9,14-4.9c6,0,10.5,1.6,13.8,4.9
			c3.2,3.2,4.8,8,4.8,14.3v35c0,3.6,0,7.2,0,10.7c0,1.8,0,3.5,0,5.3c0,1.4-0.1,2.8-0.1,4.2c-0.1,0.8,0.1,1.6,0.6,2.2
			c0.3,0.3,0.7,0.5,1.2,0.4c0.7-0.2,1.2-0.6,1.6-1.2c0.6-0.7,1.2-1.3,1.8-1.9l3.6-4c2.4-2.7,4.8-5.3,7.2-7.9l5.7-6.3l14.1-15.6
			l0.9-1c2.9-3.5,6.3-6.6,10-9.3c3.1-2.1,7.2-3.1,12.3-3.1c5.1,0,9.1,1.3,11.8,4c2.6,2.5,4.1,5.9,4.2,9.5c0.1,3.7-1.6,7.5-4.9,11.3
			l-30,33.6c-0.9,1.1-0.9,2.7,0,3.7l34.3,39.6C297.7,467.5,299.1,471.3,298.7,475.1z"/>
		<path class="st0" d="M560.7,412.6v56.3c0,6.1-1.6,10.8-4.8,14.1c-3.2,3.3-7.9,5-14,5c-6,0-10.5-1.7-13.8-5
			c-3.2-3.3-4.8-8-4.9-14.1v-54.6c0-8.4-1.5-14.5-4.6-18.2s-7.7-5.6-14-5.6c-7.9,0-14.3,2.5-19,7.4c-4.7,5-7.1,11.6-7.1,19.8v51.1
			c0,12.7-6.2,19.1-18.6,19.1c-6.1,0-10.8-1.7-14-5s-4.8-8-4.8-14.1v-88c0-6.1,1.6-10.8,4.8-14c3.2-3.2,7.7-4.8,13.5-4.8
			c5.9,0,10.5,1.6,13.6,4.8c2.7,2.8,4.3,6.7,4.6,11.6c0,0.1,0,0.1,0,0.2s0,0.2,0.1,0.3c0.1,0.4,0.5,0.7,1,0.7c0.3,0,0.6-0.1,0.8-0.4
			l0.1-0.1c3.3-4.5,7.6-8.4,12.5-11.2c7.8-4.5,16.6-6.8,25.6-6.6c9.8,0,17.8,1.9,24.1,5.6s11,9.3,14.1,16.9
			C559.1,391.5,560.7,401.1,560.7,412.6z"/>
		<path class="st0" d="M477.7,379c0-0.1-0.1-0.2-0.1-0.3c0-0.1,0-0.1,0-0.2C477.7,378.7,477.7,378.8,477.7,379z"/>
		<path class="st0" d="M655.1,468.7c0.1,3.6-0.6,7.1-2,10.4c-1.3,3-3.8,5.3-6.9,6.5c-2.9,1-5.8,1.7-8.8,2.1
			c-3.2,0.5-6.3,0.8-9.5,0.9c-11.4,0-21-1.9-28.7-5.7c-7.4-3.5-13.4-9.3-17.1-16.6c-3.7-7.3-5.6-16.5-5.6-27.5v-93.5
			c0-6.3,1.7-11,5-14.3c3.3-3.2,8-4.8,13.9-4.8c6.1,0,10.7,1.6,13.9,4.8c3.2,3.2,4.7,8,4.7,14.3v16.1c0,1.5,1.2,2.8,2.8,2.8h20.8
			c4.6,0,8.2,1.2,10.6,3.6c2.5,2.4,3.7,5.9,3.7,10.5c0,4.3-1.2,7.7-3.7,10.2s-6,3.7-10.6,3.7h-20.8c-1.6,0-2.8,1.3-2.8,2.8l0,0v42.3
			c0,7,1.6,12.2,4.8,15.6c3.2,3.5,8.4,5.2,15.5,5.2c2.4,0,4.7-0.2,7-0.7c1.9-0.5,3.9-0.8,5.9-1c2.1-0.2,4.2,0.5,5.7,2.1
			C654.3,459.9,655.1,463.4,655.1,468.7z"/>
		<path class="st0" d="M687.3,374.9c-6.1,0-10.8,1.6-14,4.8c-3.2,3.2-4.8,7.8-4.8,13.7v76.2c0,5.8,1.6,10.3,4.8,13.5s7.9,4.8,14,4.8
			s10.8-1.6,13.9-4.8s4.7-7.7,4.7-13.5v-76.2c0-5.9-1.6-10.5-4.8-13.7C697.9,376.5,693.3,374.9,687.3,374.9z"/>
		<path class="st0" d="M687.3,363.4c6.9,0,12.2-1.6,15.9-4.8s5.5-7.8,5.5-13.8c0-6.1-1.8-10.8-5.5-14c-3.6-3.2-8.9-4.8-15.9-4.9
			c-6.9,0-12.3,1.6-16,4.8c-3.7,3.2-5.6,7.9-5.6,14c0,5.9,1.9,10.5,5.6,13.8S680.4,363.4,687.3,363.4z"/>
		<path class="st0" d="M743.5,488.5c6.9,0,12.2-1.6,15.9-4.8c3.6-3.2,5.5-7.8,5.5-13.8c0-6.1-1.8-10.8-5.5-14
			c-3.6-3.2-8.9-4.8-15.9-4.8s-12.3,1.6-16,4.8s-5.6,7.9-5.6,14c0,5.9,1.9,10.5,5.6,13.8S736.5,488.5,743.5,488.5z"/>
		<path class="st0" d="M417.4,384.2c-4-7.6-10.6-13.7-18.5-17.1c-8.2-3.7-18.7-5.6-31.4-5.6c-6.4,0.1-12.7,0.6-19,1.8
			c-7.5,1.3-14.9,3.5-21.9,6.4c-3.8,1.3-6.5,3.3-8.2,6.1c-1.6,2.5-2.5,5.5-2.5,8.4c0,2.8,0.7,5.5,2.2,7.9s3.8,4.2,6.5,5
			c2.8,0.9,6,0.6,9.6-1.1c5.6-2.3,11.4-4.1,17.3-5.3c4.8-1,9.6-1.6,14.5-1.6c7.9,0,13.5,1.6,16.9,4.6s5,8.2,5,15.5v3.1
			c-0.1,0.6-0.6,1.1-1.2,1.1h-7.8c-17.2,0-31,1.1-41.4,3.3c-10.4,2.2-18,6-22.6,11.2s-7,12.3-7,21.2c-0.1,7.1,2,14.1,6,20.1
			c4.2,6.1,9.9,11,16.6,14.1c7.5,3.6,15.8,5.4,24.1,5.2c5.9,0.1,11.7-1,17.1-3.4c4.8-2.1,9-5.3,12.3-9.4c0.7-0.8,1.3-1.7,1.8-2.6
			c0.4-0.6,0.7-1.3,1.1-1.9c0.1-0.1,0.1-0.2,0.2-0.3c0.2-0.4,0.7-0.6,1.1-0.5c0.1,0,0.2,0.1,0.3,0.2c0.2,0.2,0.2,0.5,0.2,0.7
			c0.1,1,0.2,2,0.4,3.1c0.2,0.9,0.4,1.8,0.7,2.7c0.3,0.8,0.6,1.6,1,2.4c0.4,0.7,0.8,1.5,1.3,2.1c0.3,0.5,0.7,0.9,1.1,1.4
			c3.1,3.3,7.4,5,13,5s9.9-1.6,12.9-5s4.5-8,4.5-14.1v-55.1C423.6,401.8,421.5,391.9,417.4,384.2z M387.9,437.7
			c0.1,4.6-1.1,9.2-3.2,13.2c-4.3,7.9-12.6,12.7-21.6,12.5c-6.1,0-10.8-1.5-14-4.4s-5-7.1-4.9-11.4c0-3.8,1.1-6.8,3.4-9
			c2.2-2.2,5.9-3.6,11.2-4.6c6.8-1,13.6-1.5,20.5-1.3h5.9c1.6,0,2.8,1.2,2.8,2.8l0,0L387.9,437.7z"/>
	</g>
</g>
</svg>
